HIERARCHY
ROOT Hips
{
  OFFSET 48.1414 92.443 13.7472
  CHANNELS 6 Xposition Yposition Zposition Zrotation Xrotation Yrotation
  JOINT spine
  {
    OFFSET 0 7.4756 0.429885
    CHANNELS 3 Zrotation Xrotation Yrotation
    JOINT spine1
    {
      OFFSET 0 9.92301 0
      CHANNELS 3 Zrotation Xrotation Yrotation
      JOINT spine2
      {
        OFFSET 0 9.50804 0
        CHANNELS 3 Zrotation Xrotation Yrotation
        JOINT Neck
        {
          OFFSET 0 24.4111 1.16384
          CHANNELS 3 Zrotation Xrotation Yrotation
          JOINT Head
          {
            OFFSET 0 7.37523 0
            CHANNELS 3 Zrotation Xrotation Yrotation
            End Site
            {
              OFFSET 0 17.8522 -5.88741
            }
          }
        }
        JOINT RightShoulder
        {
          OFFSET -4.00356 10.2679 -0.557468
          CHANNELS 3 Zrotation Xrotation Yrotation
          JOINT RightArm
          {
            OFFSET 0 13.4673 0
            CHANNELS 3 Zrotation Xrotation Yrotation
            JOINT RightArmRoll
            {
              OFFSET 0 6.79858 0
              CHANNELS 3 Zrotation Xrotation Yrotation
              JOINT RightForeArm
              {
                OFFSET 0 19.8018 0
                CHANNELS 3 Zrotation Xrotation Yrotation
                JOINT RightForeArmRoll
                {
                  OFFSET 0 7.62905 0
                  CHANNELS 3 Zrotation Xrotation Yrotation
                  JOINT RightHand
                  {
                    OFFSET 0 15.3098 0
                    CHANNELS 3 Zrotation Xrotation Yrotation
                    End Site
                    {
                      OFFSET 0 0 0
                    }
                  }
                }
              }
            }
          }
        }
        JOINT LeftShoulder
        {
          OFFSET 4.00356 10.2679 -0.557468
          CHANNELS 3 Zrotation Xrotation Yrotation
          JOINT LeftArm
          {
            OFFSET 0 13.4673 0
            CHANNELS 3 Zrotation Xrotation Yrotation
            JOINT LeftArmRoll
            {
              OFFSET 0 6.79858 0
              CHANNELS 3 Zrotation Xrotation Yrotation
              JOINT LeftForeArm
              {
                OFFSET 0 19.8018 0
                CHANNELS 3 Zrotation Xrotation Yrotation
                JOINT LeftForeArmRoll
                {
                  OFFSET 0 7.62905 0
                  CHANNELS 3 Zrotation Xrotation Yrotation
                  JOINT LeftHand
                  {
                    OFFSET 0 15.3098 0
                    CHANNELS 3 Zrotation Xrotation Yrotation
                    End Site
                    {
                      OFFSET 0 0 0
                    }
                  }
                }
              }
            }
          }
        }
      }
    }
  }
  JOINT RightUpLeg
  {
    OFFSET -6.62609 -1.21505 -1.01927
    CHANNELS 3 Zrotation Xrotation Yrotation
    JOINT RightUpLegRoll
    {
      OFFSET 0 17.9517 0
      CHANNELS 3 Zrotation Xrotation Yrotation
      JOINT RightLeg
      {
        OFFSET 0 -22.2304 0
        CHANNELS 3 Zrotation Xrotation Yrotation
        JOINT RightLegRoll
        {
          OFFSET 0 22.3032 0
          CHANNELS 3 Zrotation Xrotation Yrotation
          JOINT RightFoot
          {
            OFFSET 0 18.5636 0
            CHANNELS 3 Zrotation Xrotation Yrotation
            JOINT RightToeBase
            {
              OFFSET 0 15.5183 0
              CHANNELS 3 Zrotation Xrotation Yrotation
              End Site
              {
                OFFSET 0.00657761 7.51539 -0.866263
              }
            }
          }
        }
      }
    }
  }
  JOINT LeftUpLeg
  {
    OFFSET 6.62609 -1.21505 -1.01927
    CHANNELS 3 Zrotation Xrotation Yrotation
    JOINT LeftUpLegRoll
    {
      OFFSET 0 17.9518 0
      CHANNELS 3 Zrotation Xrotation Yrotation
      JOINT LeftLeg
      {
        OFFSET 0 22.2303 0
        CHANNELS 3 Zrotation Xrotation Yrotation
        JOINT LeftLegRoll
        {
          OFFSET 0 22.5093 0
          CHANNELS 3 Zrotation Xrotation Yrotation
          JOINT LeftFoot
          {
            OFFSET 0 18.3575 0
            CHANNELS 3 Zrotation Xrotation Yrotation
            JOINT LeftToeBase
            {
              OFFSET 0 15.5183 0
              CHANNELS 3 Zrotation Xrotation Yrotation
              End Site
              {
                OFFSET -0.029478 7.51539 -0.866263
              }
            }
          }
        }
      }
    }
  }
}
MOTION
Frames: 4
Frame Time: 0.00208333
49.5722 92.8697 13.9854 -2.43939 -6.31547 0.957722 0.325011 -1.497 0.139801 0.653406 1.00942 0.242856 0.650933 2.65444 0.232029 -3.64028 11.8825 -2.81126 4.45795 -1.43732 -3.26208 72.4168 -2.17691 -2.60783 119.836 33.0565 -60.2456 -1.14161e-006 -1.71084e-006 -7.30635e-006 -19.5987 81.3028 15.0418 1.03118e-005 -5.80589e-007 -3 8.02928 -4.95146 0.69768 -70.8525 -1.07984 1.94521 -119.774 35.5128 34.9974 -3.29863e-006 -4.18676e-006 1.41708e-005 -25.4273 77.111 26.3785 -7.29318e-006 -6.39968e-007 3.00437 -8.03026 -4.95138 -0.697626 -174.13 -0.155564 -3.50958 180 7.01518e-015 178.803 177.69 12.8978 179.736 1.80235e-007 -4.00295e-006 0.26292 -21.5313 71.2324 22.6813 8.13649 25.2327 -3.48773 -171.415 3.79467 -4.93098 4.54188e-006 -4.6773e-006 -1.26581 -4.97651 -22.8622 -0.280456 1.26887e-006 2.66426e-006 -0.450635 18.5626 68.4569 -19.9312 -8.51539 31.7713 2.99483 
49.5719 92.8695 13.9843 -2.43833 -6.32711 0.965935 0.325561 -1.4964 0.141076 0.654392 1.01064 0.245616 0.651887 2.65565 0.234774 -3.64498 11.9114 -2.8164 4.47244 -1.42174 -3.26832 72.3971 -2.18517 -2.60992 119.801 33.1112 -60.0561 -1.14161e-006 -1.71084e-006 -7.30635e-006 -19.6069 81.3223 15.0345 1.03118e-005 -5.80589e-007 -3 8.02928 -4.95146 0.69768 -70.8891 -1.05954 1.93914 -119.698 35.5858 34.6097 -3.29863e-006 -4.18676e-006 1.41708e-005 -25.3401 77.1166 26.3001 -7.29318e-006 -6.39968e-007 3.00437 -8.03026 -4.95138 -0.697626 -174.131 -0.174571 -3.5066 180 7.01518e-015 178.803 177.689 12.885 179.736 1.80235e-007 -4.00295e-006 0.262786 -21.5299 71.2312 22.6798 8.13649 25.2327 -3.48773 -171.414 3.78261 -4.93108 4.54188e-006 -4.6773e-006 -1.26579 -4.97654 -22.8621 -0.280146 1.26887e-006 2.66426e-006 -0.450769 18.5634 68.4582 -19.9321 -8.51499 31.7693 2.99363 
49.5615 92.8676 13.9803 -2.43678 -6.33973 0.974079 0.326161 -1.49553 0.142376 0.655468 1.01238 0.248444 0.652929 2.6574 0.237586 -3.65233 11.9383 -2.82118 4.48863 -1.40263 -3.27478 72.3751 -2.19361 -2.61189 119.768 33.1683 -59.8639 -1.14161e-006 -1.71084e-006 -7.30635e-006 -19.6133 81.3434 15.0254 1.03118e-005 -5.80589e-007 -3 8.02928 -4.95146 0.69768 -70.9274 -1.03913 1.93321 -119.62 35.6606 34.2233 -3.29863e-006 -4.18676e-006 1.41708e-005 -25.2505 77.1212 26.2188 -7.29318e-006 -6.39968e-007 3.00437 -8.03026 -4.95138 -0.697626 -174.132 -0.194849 -3.50324 180 7.01518e-015 178.803 177.689 12.8715 179.736 1.80235e-007 -4.00295e-006 0.26265 -21.5283 71.2298 22.6783 8.13649 25.2327 -3.48773 -171.414 3.76907 -4.93069 4.54188e-006 -4.6773e-006 -1.26578 -4.97657 -22.8613 -0.279783 1.26887e-006 2.66426e-006 -0.450896 18.5641 68.4592 -19.9328 -8.5146 31.7674 2.99252 
49.5645 92.8637 13.9837 -2.43477 -6.35316 0.982235 0.326816 -1.49442 0.143713 0.656648 1.01461 0.251357 0.654073 2.65962 0.24048 -3.66226 11.9634 -2.82563 4.50646 -1.38055 -3.28144 72.3506 -2.2023 -2.61376 119.738 33.2274 -59.6686 -1.14161e-006 -1.71084e-006 -7.30635e-006 -19.6202 81.3664 15.0165 1.03118e-005 -5.80589e-007 -3 8.02928 -4.95146 0.69768 -70.9673 -1.01879 1.92747 -119.54 35.7369 33.8388 -3.29863e-006 -4.18676e-006 1.41708e-005 -25.158 77.1247 26.1339 -7.29318e-006 -6.39968e-007 3.00437 -8.03026 -4.95138 -0.697626 -174.135 -0.21613 -3.49955 180 7.01518e-015 178.803 177.688 12.8578 179.736 1.80235e-007 -4.00295e-006 0.262513 -21.5267 71.2284 22.6766 8.13649 25.2327 -3.48773 -171.414 3.75428 -4.92979 4.54188e-006 -4.6773e-006 -1.26577 -4.97653 -22.8597 -0.279365 1.26887e-006 2.66426e-006 -0.451015 18.5646 68.4601 -19.9334 -8.51421 31.7656 2.99146 
